<svg className='birb' width="800" height="600" xmlns="http://www.w3.org/2000/svg" xmlns:xlink="http://www.w3.org/1999/xlink" style="vector-effect: non-scaling-stroke;">
    <g id="Layer_1">
        <path id="svg_2" d="m417.49437,225.24697l15.49978,-21.24972l-4.49994,-3.99995l-8.99988,-0.49999l-13.49982,3.49995l-6.49991,6.49991l-1.99997,2.99996l19.99974,12.74984z" opacity="undefined" fill-opacity='0' stroke-opacity='0.3' stroke-dasharray="null" stroke-width="null" stroke="#ffffff" fill="#fff"/>
        <path id="svg_3" d="m439.99407,207.24721l8.99987,0.74998l8.99988,8.49989l3.99995,5.99992l1.99997,26.99964l-2.49997,6.99991l-7.4999,5.49993l-6.49991,-0.49999l-17.99976,-17.99976l6.99991,-10.49986l6.99991,-5.49993l-0.99999,-10.99985l-4.99993,-1.99997l2.49998,-7.24989z" opacity="undefined" fill-opacity='0' stroke-opacity='0.3' stroke-dasharray="null" stroke-width="null" stroke="#ffffff" fill="#fff"/>
        <ellipse ry="8.74988" rx="4.24994" id="svg_4" cy="225.99696" cx="427.74424" opacity="undefined" fill-opacity='0' stroke-opacity='0.3' stroke-dasharray="null" stroke-width="null" stroke="#ffffff" fill="#fff"/>
        <path id="svg_5" d="m415.4944,238.74679l-14.49981,-13.74983l-9.99987,-0.49999l-4.99993,10.49986l0,12.49983l1.99997,11.99984l7.4999,8.99988l9.49987,8.99988l2.49997,-6.49991l-5.49993,-7.4999l4.49994,-8.99988l7.4999,-6.99991l1.49999,-8.74987z" opacity="undefined" fill-opacity='0' stroke-opacity='0.3' stroke-dasharray="null" stroke-width="null" stroke="#ffffff" fill="#fff"/>
        <path id="svg_6" d="m420.49433,248.74665l-3.99996,7.74988l-7.99989,6.99991l9.99987,2.99996l20.49972,-1.49998l-2.49997,-9.49987l-15.99977,-6.7499z" opacity="undefined" fill-opacity='0' stroke-opacity='0.3' stroke-dasharray="null" stroke-width="null" stroke="#ffffff" fill="#fff"/>
        <path id="svg_7" d="m375.49494,264.24645l-7.9999,-5.74994l-10.49986,3.99995l-6.99991,5.99992l-16.49978,20.49972l-11.99984,8.49989l-12.49983,5.99992l-18.49975,-6.49991l-16.99977,-7.4999l-9.49987,-6.49991l-5.99992,0l3.99995,10.49986l13.49982,13.49982l13.99981,13.49982l12.49983,8.99988l22.99969,13.49982l24.99966,6.49991l23.99968,-3.49995l18.99974,-5.99992l20.99972,-14.4998l5.99992,-13.99981l-44.49939,-47.24935z" opacity="undefined" fill-opacity='0' stroke-opacity='0.3' stroke-dasharray="null" stroke-width="null" stroke="#ffffff" fill="#fff"/>
        <path id="svg_8" d="m418.99435,296.74601l0.99998,5.24992l6.49991,4.49994l-0.49999,11.99984l-8.99988,12.49983l-12.49983,11.99984l-13.49982,3.49995l-14.9998,1.49998l-3.49995,3.49995l0,8.99988l-11.49984,9.99987l-11.99984,7.4999l-20.49972,4.99993l-5.99992,0.49999l2.99996,5.99992l17.99976,6.99991l19.99973,0.99999l26.99964,-3.49995l14.9998,-6.49991l13.49982,-6.99991l17.49976,-13.49982l13.99981,-21.49971l6.99991,-14.4998l3.49995,-14.4998l-0.49999,-8.49989l-9.99987,-10.49986l-14.9998,-3.99995l-16.49977,3.24997z" opacity="undefined" fill-opacity='0' stroke-opacity='0.3' stroke-dasharray="null" stroke-width="null" stroke="#ffffff" fill="#fff"/>
        <path id="svg_9" d="m423.99429,287.74613l15.99977,-14.24982l24.49967,-7.99989l24.49967,-3.49995l24.99966,3.99995l15.99978,7.99989l23.99968,17.99976l11.99984,10.49986l11.49984,11.99984l4.49994,7.4999l1.49998,5.99992l-7.99989,1.49998l-3.99995,-8.99988l-8.49989,-1.49998l-16.49978,-2.99996l-14.4998,-4.99993l-9.99987,2.99996l-12.49983,7.4999l-17.99976,19.49974l-7.99989,6.99991l-13.99981,0.99999l-6.99991,-4.99993l1.99997,-15.49979l-1.49998,-10.99985l0.49999,-9.99987l-9.99987,-12.49983l-17.49976,-4.49994l-11.99983,-2.74995z" opacity="undefined" fill-opacity='0' stroke-opacity='0.3' stroke-dasharray="null" stroke-width="null" stroke="#ffffff" fill="#fff"/>
    </g>
</svg>